<svg id="77f479e9-d53f-4749-9289-6fe2bb8e1000" data-name="Слой 1" xmlns="http://www.w3.org/2000/svg" viewBox="0 0 120.83 59.87"><defs><style>.\32 d3ea42f-ec16-4b55-ba53-d8cbbd22dd71{fill:#fff;}</style></defs><title>logo-gazprom-neft</title><path class="2d3ea42f-ec16-4b55-ba53-d8cbbd22dd71" d="M120.85,45.56V59.84H78.38V57.09h2v-.87c2,0,2.94-.49,2.94-2.29V51.16c0-1.81-.88-2.27-2.94-2.27V45.56Zm-4,9.24v-.87c0-1.77-.75-2.24-2.84-2.24h-.28V48.21h-2v8.87h2C116,57.09,116.82,56.79,116.82,54.8Zm-17-5V48.21H95v1.57h1.42v7.3h2.06v-7.3Z" transform="translate(-0.02)"/><polygon class="2d3ea42f-ec16-4b55-ba53-d8cbbd22dd71" points="120.61 18.33 120.61 39.06 116.62 39.06 116.62 26.06 116.49 26.06 114.44 39.06 111.26 39.06 109.22 26.06 109.07 26.06 109.07 39.06 105.1 39.06 105.1 18.33 110.26 18.33 112.85 32.89 115.44 18.33 120.61 18.33"/><path class="2d3ea42f-ec16-4b55-ba53-d8cbbd22dd71" d="M102.51,22V35.36c0,1.43-.17,3.71-3,3.71H96.28c-2.79,0-3-2.29-3-3.71V22c0-1.43.16-3.7,3-3.7H99.5C102.34,18.33,102.51,20.57,102.51,22Zm-4,13.67V21.57a.65.65,0,0,0-.17-.47.64.64,0,0,0-.45-.2.61.61,0,0,0-.46.19.62.62,0,0,0-.16.48V35.7a.62.62,0,0,0,.16.48.61.61,0,0,0,.46.19.64.64,0,0,0,.45-.2A.65.65,0,0,0,98.55,35.7ZM90.72,22V28.3c0,1.43-.17,3.7-3,3.7H85.5v7.06h-4V18.33h6.24C90.55,18.33,90.72,20.57,90.72,22Zm-4,6.66V21.93c0-.64-.3-1-.74-1h-.5v8.81H86C86.44,29.71,86.73,29.34,86.73,28.69ZM80.38,45.56v2.66h-2v.67c-2.07,0-3,.46-3,2.27v2.77c0,1.8.92,2.29,3,2.29v3.61H59.44V57.09h4V55.53h-2V53.2h1.7V51.77H61.5v-2h1.82V45.5Z" transform="translate(-0.02)"/><polygon class="2d3ea42f-ec16-4b55-ba53-d8cbbd22dd71" points="78.9 18.33 78.9 39.06 74.93 39.06 74.93 20.9 73.68 20.9 73.68 39.06 69.69 39.06 69.69 18.33 78.9 18.33"/><path class="2d3ea42f-ec16-4b55-ba53-d8cbbd22dd71" d="M67.11,31.17v4.19c0,1.43-.18,3.71-3,3.71H60.86c-2.84,0-3-2.26-3-3.71V31.8h4v3.9a.62.62,0,0,0,.16.48.61.61,0,0,0,.46.19.64.64,0,0,0,.44-.21.65.65,0,0,0,.17-.46V30.87c0-.64-.11-1.36-1.59-1.36H59.92V27.24H61.6c1.13,0,1.53-.27,1.53-1.54V21.57a.65.65,0,0,0-.17-.46.64.64,0,0,0-.44-.21.61.61,0,0,0-.46.19.62.62,0,0,0-.16.48V25h-4V22.1c0-1.43.17-3.7,3-3.7h3.29c2.84,0,3,2.24,3,3.7v3.26a2.51,2.51,0,0,1-.66,2.1,2.47,2.47,0,0,1-2,.76v.2a2.42,2.42,0,0,1,2,.7A2.45,2.45,0,0,1,67.11,31.17Zm-3.8,14.39v2.66H59.44V59.83H38V45.54ZM47.1,57.09V48.21H45v3.43H44V48.21H41.92v8.87H44V53.2h1v3.89Zm7-38.76,2.07,20.73H52.32l-.37-5.51H50.08l-.37,5.51H45.82l2.06-20.73ZM51.81,31.19l-.68-10.36H50.9l-.68,10.36Z" transform="translate(-0.02)"/><polygon class="2d3ea42f-ec16-4b55-ba53-d8cbbd22dd71" points="45.7 18.33 45.7 20.9 42.1 20.9 42.1 39.06 38.13 39.06 38.13 18.33 45.7 18.33"/><path class="2d3ea42f-ec16-4b55-ba53-d8cbbd22dd71" d="M35.59,39.16V53.33a20.47,20.47,0,0,1-24.9,4,20.74,20.74,0,0,1,9.88-38.87V34a11.51,11.51,0,0,0-8.16,3.4A12.38,12.38,0,0,0,11,39.16a11.7,11.7,0,0,0,2.24,15.44,11.5,11.5,0,0,0,15.48-.67,5.84,5.84,0,0,0-2.59-9.75,5.76,5.76,0,0,0-5.59,1.51V39.16Z" transform="translate(-0.02)"/><path class="2d3ea42f-ec16-4b55-ba53-d8cbbd22dd71" d="M32.88,10.81a32.35,32.35,0,0,1,.68,12.86A33,33,0,0,1,28,37.87a30.32,30.32,0,0,1-3.35-6,37.44,37.44,0,0,1-2.28-8.74A36,36,0,0,1,22.14,19a34.08,34.08,0,0,1,1.42-9.5A37.72,37.72,0,0,1,28,0,35,35,0,0,1,32.88,10.81Zm-.37,9.44a35.22,35.22,0,0,0-1.19-9.49A35.85,35.85,0,0,0,28,3a38.36,38.36,0,0,0-3.28,7.91A35.21,35.21,0,0,0,23.59,18,40.55,40.55,0,0,0,24.12,26a41.57,41.57,0,0,1,.74-8.19A34.87,34.87,0,0,1,28,9.1a35.49,35.49,0,0,1,3.21,8.74,35.86,35.86,0,0,1,.68,8.1A30.61,30.61,0,0,0,32.51,20.26ZM28,36.49a14.7,14.7,0,0,0,1.66-7.14A15.64,15.64,0,0,0,28,22.81a14.37,14.37,0,0,0-1.67,6.83A15.5,15.5,0,0,0,28,36.49Zm86.21,16.74h-.45v2.31h.45c.45,0,.6-.11.6-.63V53.84c0-.51-.14-.63-.6-.63Zm-32.88-2v2.86c0,.53-.17.66-.62.66h-.33V50.63h.33C81.17,50.63,81.34,50.73,81.34,51.26Zm-2.94-.63v4.13h-.33c-.47,0-.62-.11-.62-.64V51.26c0-.53.16-.66.62-.66Z" transform="translate(-0.02)"/></svg>